Coordinates
version=1
nRows=26
nColumns=30
inDegrees=yes

Units are S.I. units (second, meters, Newtons, ...)
Angles are in degrees.

endheader
time	floatyaw	floatroll	floatpitch	floatx	floaty	floatz	pro_sup_l	deviation_l	flexion_l	cmc_flexion_l	cmc_abduction_l	mp_flexion_l	ip_flexion_l	2mcp_flexion_l	2mcp_abduction_l	2pm_flexion_l	2md_flexion_l	3mcp_flexion_l	3mcp_abduction_l	3pm_flexion_l	3md_flexion_l	4mcp_flexion_l	4mcp_abduction_l	4pm_flexion_l	4md_flexion_l	5mcp_flexion_l	5mcp_abduction_l	5pm_flexion_l	5md_flexion_l
-0.995000	-160.147433	-5.066637	-73.570646	0.081820	-0.181119	-0.014537	101.533549	2.934744	1.302093	15.929781	7.991361	-25.078820	-41.158414	28.646146	5.799107	41.202390	27.780472	22.160939	3.802927	42.248267	28.200671	10.056508	-4.233547	51.399593	34.955343	-3.483112	-6.529404	62.116393	40.892063
-0.985000	-160.147433	-5.066637	-73.570646	0.081821	-0.181092	-0.014536	101.555390	2.942624	1.314894	15.927634	8.033720	-25.079813	-41.159183	28.635393	5.806322	41.218108	27.772852	22.150985	3.800917	42.267580	28.201051	10.064615	-4.231744	51.385437	34.938273	-3.465015	-6.532715	62.119082	40.878575
-0.975000	-160.147433	-5.066637	-73.570646	0.081824	-0.181067	-0.014533	101.577512	2.950785	1.326581	15.931839	8.069140	-25.073923	-41.158216	28.630156	5.813792	41.229687	27.761504	22.144267	3.800052	42.281195	28.197305	10.075443	-4.229535	51.368691	34.919423	-3.451869	-6.537235	62.139637	40.875019
-0.965000	-160.147433	-5.066637	-73.570646	0.081828	-0.181045	-0.014529	101.594968	2.958443	1.338519	15.939612	8.089141	-25.065161	-41.160447	28.630678	5.819836	41.229667	27.746830	22.137247	3.800000	42.289849	28.192873	10.080971	-4.227169	51.355031	34.904108	-3.448349	-6.540117	62.170763	40.874027
-0.955000	-160.147433	-5.066637	-73.570646	0.081833	-0.181029	-0.014524	101.603787	2.964016	1.351623	15.946610	8.090908	-25.057919	-41.168227	28.635269	5.823963	41.214995	27.731740	22.126387	3.800029	42.297781	28.192536	10.076033	-4.225017	51.348966	34.896006	-3.456627	-6.539342	62.202819	40.870226
-0.945000	-160.147433	-5.066637	-73.570646	0.081836	-0.181018	-0.014520	101.603568	2.966745	1.365890	15.948111	8.076495	-25.053840	-41.178797	28.641878	5.826676	41.187453	27.719701	22.110614	3.799379	42.308684	28.199246	10.061101	-4.223458	51.351349	34.895139	-3.474652	-6.534621	62.227133	40.862398
-0.935000	-160.147433	-5.066637	-73.570646	0.081838	-0.181010	-0.014516	101.597758	2.967416	1.380382	15.941143	8.051308	-25.051109	-41.185214	28.649403	5.828767	41.152743	27.713217	22.092136	3.797638	42.323058	28.212589	10.041981	-4.222800	51.359149	34.898142	-3.496073	-6.527246	62.238269	40.852899
-0.925000	-160.147433	-5.066637	-73.570646	0.081838	-0.181003	-0.014514	101.591225	2.967587	1.393772	15.926316	8.023096	-25.046692	-41.180662	28.657818	5.830623	41.118536	27.713331	22.074925	3.794889	42.338769	28.229755	10.026190	-4.223178	51.367772	34.900759	-3.512758	-6.519084	62.234818	40.845327
-0.915000	-160.147433	-5.066637	-73.570646	0.081838	-0.180994	-0.014512	101.587003	2.968175	1.405183	15.907873	8.000353	-25.039471	-41.163230	28.667261	5.832012	41.091643	27.719603	22.062011	3.791558	42.353557	28.247721	10.018171	-4.224435	51.374135	34.900767	-3.518958	-6.511427	62.219025	40.842101
-0.905000	-160.147433	-5.066637	-73.570646	0.081836	-0.180982	-0.014511	101.584726	2.968795	1.414693	15.891591	7.988910	-25.031441	-41.137486	28.676973	5.832407	41.075374	27.730132	22.053642	3.788125	42.366875	28.264704	10.016613	-4.226087	51.378225	34.899217	-3.514466	-6.504433	62.195747	40.843196
-0.895000	-160.147433	-5.066637	-73.570646	0.081836	-0.180970	-0.014510	101.581774	2.968413	1.423024	15.881728	7.988142	-25.025950	-41.111656	28.685104	5.831532	41.068861	27.741879	22.047586	3.784906	42.379834	28.280047	10.015883	-4.227499	51.382255	34.899180	-3.504355	-6.497482	62.171102	40.846190
-0.885000	-160.147433	-5.066637	-73.570646	0.081836	-0.180959	-0.014508	101.575932	2.966579	1.430554	15.878953	7.990174	-25.024784	-41.092741	28.689633	5.829694	41.069066	27.751612	22.041145	3.782056	42.393953	28.293149	10.010528	-4.228233	51.388450	34.903021	-3.495323	-6.490184	62.151072	40.847227
-0.875000	-160.147433	-5.066637	-73.570646	0.081838	-0.180953	-0.014505	101.567326	2.963997	1.436527	15.880481	7.983818	-25.026863	-41.083150	28.689651	5.827694	41.074074	27.757301	22.033208	3.779716	42.410007	28.302680	9.999386	-4.228286	51.397357	34.910321	-3.491411	-6.483264	62.140403	40.842633
-0.865000	-160.147433	-5.066637	-73.570646	0.081841	-0.180952	-0.014500	101.558209	2.961903	1.439281	15.882161	7.961214	-25.029623	-41.080643	28.685856	5.826403	41.085169	27.759387	22.024908	3.778114	42.427544	28.306898	9.986225	-4.228030	51.407798	34.917992	-3.492351	-6.478598	62.141994	40.831050
-0.855000	-160.147433	-5.066637	-73.570646	0.081844	-0.180958	-0.014495	101.551034	2.960865	1.437491	15.881054	7.922875	-25.031630	-41.080734	28.679843	5.826298	41.106097	27.761116	22.018716	3.777501	42.444888	28.304794	9.976693	-4.227895	51.418152	34.922442	-3.495437	-6.478195	62.156623	40.815252
-0.845000	-160.147433	-5.066637	-73.570646	0.081848	-0.180968	-0.014492	101.546548	2.960157	1.431499	15.876866	7.877876	-25.034092	-41.079601	28.672896	5.827313	41.139842	27.767251	22.016845	3.777954	42.459448	28.297072	9.974088	-4.228079	51.427746	34.922109	-3.498845	-6.482799	62.182778	40.802154
-0.835000	-160.147433	-5.066637	-73.570646	0.081850	-0.180980	-0.014491	101.543401	2.958304	1.423715	15.871518	7.839107	-25.040041	-41.075960	28.665323	5.829094	41.185055	27.781414	22.019910	3.779273	42.468472	28.286164	9.977000	-4.228479	51.437377	34.918545	-3.503412	-6.491107	62.216572	40.800059
-0.825000	-160.147433	-5.066637	-73.570646	0.081851	-0.180990	-0.014493	101.539391	2.954350	1.417686	15.867375	7.816566	-25.051863	-41.071218	28.656692	5.831397	41.234810	27.803680	22.026309	3.781104	42.470318	28.275355	9.980209	-4.228912	51.448926	34.915449	-3.511473	-6.500218	62.252123	40.814187
-0.815000	-160.147433	-5.066637	-73.570646	0.081850	-0.180997	-0.014497	101.533190	2.948782	1.416382	15.865351	7.812616	-25.069053	-41.068120	28.646639	5.834306	41.278928	27.830185	22.032553	3.783217	42.465645	28.267632	9.977939	-4.229425	51.464513	34.916495	-3.524022	-6.507055	62.282703	40.843115
-0.805000	-160.147433	-5.066637	-73.570646	0.081848	-0.180999	-0.014502	101.525126	2.943289	1.420721	15.864054	7.821788	-25.087858	-41.068856	28.635811	5.838097	41.308409	27.854938	22.034757	3.785659	42.457508	28.264738	9.967316	-4.230378	51.485454	34.923381	-3.538741	-6.509893	62.302537	40.878654
-0.795000	-160.147433	-5.066637	-73.570646	0.081844	-0.180998	-0.014504	101.516494	2.939479	1.429154	15.860473	7.834906	-25.103186	-41.073881	28.626534	5.842871	41.318980	27.872411	22.030896	3.788595	42.449988	28.266653	9.950024	-4.232153	51.511159	34.935114	-3.550644	-6.509086	62.308661	40.909580
-0.785000	-160.147433	-5.066637	-73.570646	0.081840	-0.180993	-0.014505	101.508244	2.937599	1.438516	15.851765	7.844747	-25.111561	-41.082192	28.622616	5.848259	41.311998	27.879360	22.022399	3.791950	42.446311	28.271684	9.931374	-4.234702	51.538576	34.948636	-3.554874	-6.506684	62.302081	40.927190
-0.775000	-160.147433	-5.066637	-73.570646	0.081835	-0.180987	-0.014504	101.500344	2.936299	1.445627	15.837028	7.849661	-25.113207	-41.092710	28.627961	5.853451	41.292947	27.875256	22.013676	3.795216	42.447764	28.277202	9.917504	-4.237383	51.562954	34.960243	-3.549648	-6.505275	62.287647	40.929433
-0.765000	-160.147433	-5.066637	-73.570646	0.081831	-0.180981	-0.014503	101.492265	2.933576	1.448804	15.817960	7.853105	-25.111822	-41.105461	28.644744	5.857527	41.268748	27.861518	22.009773	3.797638	42.453743	28.280564	9.912389	-4.239253	51.579907	34.967043	-3.537325	-6.506723	62.272377	40.921334
-0.755000	-160.147433	-5.066637	-73.570646	0.081827	-0.180973	-0.014505	101.483826	2.928137	1.448516	15.797846	7.859791	-25.112062	-41.121224	28.672421	5.859850	41.244944	27.840147	22.013757	3.798678	42.462198	28.279697	9.916284	-4.239657	51.587544	34.967921	-3.523012	-6.511374	62.262505	40.911627
-0.745000	-160.147433	-5.066637	-73.570646	0.081824	-0.180964	-0.014510	101.475434	2.920233	1.446965	15.779299	7.871296	-25.116182	-41.139481	28.708102	5.860264	41.223682	27.812586	22.025404	3.798391	42.469944	28.273242	9.926217	-4.238707	51.587203	34.963713	-3.511727	-6.517999	62.260442	40.907699
